<svg width="128" height="128" viewBox="0 0 128 128" fill="none" xmlns="http://www.w3.org/2000/svg">
<g id="PawPrint" clip-path="url(#clip0_104_2129)">
<path id="Vector" d="M106 64C111.523 64 116 59.5228 116 54C116 48.4772 111.523 44 106 44C100.477 44 96 48.4772 96 54C96 59.5228 100.477 64 106 64Z" stroke="black" stroke-width="5" stroke-linecap="round" stroke-linejoin="round"/>
<path id="Vector_2" d="M22 64C27.5228 64 32 59.5228 32 54C32 48.4772 27.5228 44 22 44C16.4772 44 12 48.4772 12 54C12 59.5228 16.4772 64 22 64Z" stroke="black" stroke-width="5" stroke-linecap="round" stroke-linejoin="round"/>
<path id="Vector_3" d="M46 40C51.5228 40 56 35.5228 56 30C56 24.4772 51.5228 20 46 20C40.4772 20 36 24.4772 36 30C36 35.5228 40.4772 40 46 40Z" stroke="black" stroke-width="5" stroke-linecap="round" stroke-linejoin="round"/>
<path id="Vector_4" d="M82 40C87.5228 40 92 35.5228 92 30C92 24.4772 87.5228 20 82 20C76.4772 20 72 24.4772 72 30C72 35.5228 76.4772 40 82 40Z" stroke="black" stroke-width="5" stroke-linecap="round" stroke-linejoin="round"/>
<path id="Vector_5" d="M64 52C60.0993 52.0014 56.3047 53.2699 53.1873 55.6145C50.0699 57.9591 47.7985 61.2529 46.715 65C45.1139 70.5114 41.3989 75.1664 36.38 77.95C32.7364 79.8927 29.985 83.1687 28.701 87.0931C27.417 91.0175 27.6998 95.2863 29.4904 99.0069C31.281 102.728 34.4407 105.612 38.3087 107.057C42.1767 108.502 46.4536 108.395 50.245 106.76C59.0557 103.147 68.9342 103.147 77.745 106.76C81.5364 108.395 85.8132 108.502 89.6812 107.057C93.5492 105.612 96.7089 102.728 98.4995 99.0069C100.29 95.2863 100.573 91.0175 99.2889 87.0931C98.0049 83.1687 95.2535 79.8927 91.61 77.95C86.5937 75.1656 82.8821 70.5104 81.285 65C80.2014 61.2529 77.93 57.9591 74.8126 55.6145C71.6953 53.2699 67.9006 52.0014 64 52Z" stroke="black" stroke-width="5" stroke-linecap="round" stroke-linejoin="round"/>
</g>
<defs>
<clipPath id="clip0_104_2129">
<rect width="128" height="128" fill="white"/>
</clipPath>
</defs>
</svg>
