<svg width="128" height="128" viewBox="0 0 128 128" fill="none" xmlns="http://www.w3.org/2000/svg">
<g id="PiggyBank" clip-path="url(#clip0_1026_394)">
<path id="Vector" d="M90 64C93.3137 64 96 61.3137 96 58C96 54.6863 93.3137 52 90 52C86.6863 52 84 54.6863 84 58C84 61.3137 86.6863 64 90 64Z" fill="black"/>
<path id="Vector_2" d="M56 36H76" stroke="black" stroke-width="5" stroke-linecap="round" stroke-linejoin="round"/>
<path id="Vector_3" d="M4 72C4 68.8174 5.26428 65.7652 7.51472 63.5147C9.76516 61.2643 12.8174 60 16 60" stroke="black" stroke-width="5" stroke-linecap="round" stroke-linejoin="round"/>
<path id="Vector_4" d="M110.17 48H112C114.122 48 116.157 48.8429 117.657 50.3431C119.157 51.8434 120 53.8783 120 56V72C120 74.1217 119.157 76.1566 117.657 77.6569C116.157 79.1571 114.122 80 112 80H108L98.95 105.345C98.6724 106.122 98.1611 106.795 97.4861 107.27C96.8111 107.746 96.0056 108.001 95.18 108H88.82C87.9945 108.001 87.1889 107.746 86.514 107.27C85.839 106.795 85.3276 106.122 85.05 105.345L83.145 100H48.855L46.95 105.345C46.6724 106.122 46.1611 106.795 45.4861 107.27C44.8111 107.746 44.0056 108.001 43.18 108H36.82C35.9945 108.001 35.1889 107.746 34.514 107.27C33.839 106.795 33.3276 106.122 33.05 105.345L26.5 87C19.7367 79.636 15.9889 69.9985 16 60C16 49.3913 20.2143 39.2172 27.7158 31.7157C35.2172 24.2143 45.3914 20 56 20H72C79.8055 19.9977 87.4411 22.2792 93.9658 26.5633C100.491 30.8474 105.619 36.9468 108.72 44.11C109.269 45.3814 109.753 46.6797 110.17 48Z" stroke="black" stroke-width="5" stroke-linecap="round" stroke-linejoin="round"/>
</g>
<defs>
<clipPath id="clip0_1026_394">
<rect width="128" height="128" fill="white"/>
</clipPath>
</defs>
</svg>
