<svg width="25" height="24" viewBox="0 0 25 24" fill="none" xmlns="http://www.w3.org/2000/svg">
<g id="HandCoins" clip-path="url(#clip0_831_538)">
<path id="Vector" d="M19.2593 10.5C20.709 10.5 21.8843 9.32475 21.8843 7.875C21.8843 6.42525 20.709 5.25 19.2593 5.25C17.8095 5.25 16.6343 6.42525 16.6343 7.875C16.6343 9.32475 17.8095 10.5 19.2593 10.5Z" stroke="black" stroke-linecap="round" stroke-linejoin="round"/>
<path id="Vector_2" d="M4.63428 19.5H1.63428C1.43536 19.5 1.2446 19.421 1.10395 19.2803C0.963295 19.1397 0.884277 18.9489 0.884277 18.75V15C0.884277 14.8011 0.963295 14.6103 1.10395 14.4697C1.2446 14.329 1.43536 14.25 1.63428 14.25H4.63428" stroke="black" stroke-linecap="round" stroke-linejoin="round"/>
<path id="Vector_3" d="M10.6343 15H13.6343L19.9155 13.5553C20.1465 13.492 20.3889 13.4829 20.6239 13.5285C20.859 13.5741 21.0804 13.6734 21.2708 13.8185C21.4613 13.9636 21.6157 14.1507 21.7221 14.3652C21.8285 14.5797 21.884 14.8159 21.8843 15.0553C21.8844 15.3444 21.8039 15.6279 21.6519 15.8738C21.4999 16.1197 21.2823 16.3184 21.0237 16.4475L17.3843 18L11.3843 19.5H4.63428V14.25L6.97803 11.9063C7.18751 11.6975 7.4361 11.5321 7.70957 11.4195C7.98304 11.3069 8.27603 11.2493 8.57178 11.25H13.2593C13.7566 11.25 14.2335 11.4476 14.5851 11.7992C14.9367 12.1508 15.1343 12.6277 15.1343 13.125C15.1343 13.6223 14.9367 14.0992 14.5851 14.4508C14.2335 14.8025 13.7566 15 13.2593 15H10.6343Z" stroke="black" stroke-linecap="round" stroke-linejoin="round"/>
<path id="Vector_4" d="M16.6343 7.99594C16.1248 8.2369 15.5513 8.30749 14.9986 8.19727C14.4459 8.08706 13.9434 7.80189 13.5653 7.38394C13.1872 6.966 12.9537 6.43747 12.8992 5.87653C12.8448 5.31559 12.9723 4.75202 13.263 4.26917C13.5536 3.78632 13.992 3.40984 14.5132 3.1954C15.0344 2.98096 15.6107 2.93996 16.157 3.07844C16.7033 3.21693 17.1905 3.52757 17.5466 3.9644C17.9027 4.40123 18.1087 4.94107 18.1343 5.50407" stroke="black" stroke-linecap="round" stroke-linejoin="round"/>
</g>
<defs>
<clipPath id="clip0_831_538">
<rect width="24" height="24" fill="white" transform="translate(0.134277)"/>
</clipPath>
</defs>
</svg>
