<svg width="128" height="128" viewBox="0 0 128 128" fill="none" xmlns="http://www.w3.org/2000/svg">
<g id="Handshake" clip-path="url(#clip0_1026_416)">
<path id="Vector" d="M91.9998 36H71.9998L49.1698 58.145C48.7454 58.5692 48.4219 59.0834 48.2232 59.6496C48.0245 60.2158 47.9558 60.8195 48.022 61.4159C48.0883 62.0123 48.2879 62.5861 48.606 63.0949C48.9242 63.6036 49.3527 64.0343 49.8598 64.355C58.6148 69.95 70.4998 69.565 79.9998 60L99.9998 76L108 68" stroke="black" stroke-width="5" stroke-linecap="round" stroke-linejoin="round"/>
<path id="Vector_2" d="M100 76L80 96L48 88L20 68" stroke="black" stroke-width="5" stroke-linecap="round" stroke-linejoin="round"/>
<path id="Vector_3" d="M28 96L40 104L56 108" stroke="black" stroke-width="5" stroke-linecap="round" stroke-linejoin="round"/>
<path id="Vector_4" d="M36 36L64 28L92 36" stroke="black" stroke-width="5" stroke-linecap="round" stroke-linejoin="round"/>
<path id="Vector_5" d="M18.2101 31.58L5.79014 56.42C5.55473 56.8901 5.41429 57.4019 5.37685 57.9263C5.33942 58.4507 5.40572 58.9773 5.57197 59.4761C5.73821 59.9748 6.00114 60.4359 6.34572 60.8329C6.6903 61.23 7.10977 61.5552 7.58014 61.79L20.0001 68L36.0001 36L23.5801 29.79C23.1101 29.5546 22.5982 29.4142 22.0738 29.3767C21.5494 29.3393 21.0228 29.4056 20.5241 29.5718C20.0253 29.7381 19.5643 30.001 19.1672 30.3456C18.7702 30.6902 18.4449 31.1096 18.2101 31.58Z" stroke="black" stroke-width="5" stroke-linecap="round" stroke-linejoin="round"/>
<path id="Vector_6" d="M104.42 29.79L92 36L108 68L120.42 61.79C120.89 61.5552 121.31 61.23 121.654 60.8329C121.999 60.4359 122.262 59.9748 122.428 59.4761C122.594 58.9773 122.661 58.4507 122.623 57.9263C122.586 57.4019 122.445 56.8901 122.21 56.42L109.79 31.58C109.555 31.1096 109.23 30.6902 108.833 30.3456C108.436 30.001 107.975 29.7381 107.476 29.5718C106.977 29.4056 106.451 29.3393 105.926 29.3767C105.402 29.4142 104.89 29.5546 104.42 29.79Z" stroke="black" stroke-width="5" stroke-linecap="round" stroke-linejoin="round"/>
</g>
<defs>
<clipPath id="clip0_1026_416">
<rect width="128" height="128" fill="white"/>
</clipPath>
</defs>
</svg>
