<svg width="128" height="129" viewBox="0 0 128 129" fill="none" xmlns="http://www.w3.org/2000/svg">
<g id="ShootingStar" clip-path="url(#clip0_1026_71)">
<path id="Vector" d="M84.4001 14.0701L92.0001 31.7851C92.188 32.2183 92.4901 32.5922 92.874 32.867C93.258 33.1418 93.7095 33.307 94.1801 33.3451L113.615 35.0001C114.123 35.0327 114.61 35.2162 115.014 35.5271C115.417 35.838 115.718 36.2621 115.88 36.7453C116.041 37.2284 116.054 37.7486 115.918 38.2393C115.782 38.7301 115.502 39.169 115.115 39.5001L100.35 52.0851C99.9969 52.3864 99.7328 52.7787 99.5865 53.2193C99.4402 53.66 99.4172 54.1323 99.5201 54.5851L103.94 73.3151C104.05 73.8121 104.011 74.3303 103.829 74.8056C103.647 75.2809 103.33 75.6923 102.916 75.9888C102.502 76.2854 102.011 76.454 101.502 76.4737C100.994 76.4935 100.491 76.3636 100.055 76.1001L83.3451 66.1651C82.9377 65.9245 82.4732 65.7976 82.0001 65.7976C81.527 65.7976 81.0625 65.9245 80.6551 66.1651L63.9451 76.1001C63.5097 76.3636 63.0065 76.4935 62.4979 76.4737C61.9893 76.454 61.4978 76.2854 61.0841 75.9888C60.6705 75.6923 60.3529 75.2809 60.1709 74.8056C59.9889 74.3303 59.9503 73.8121 60.0601 73.3151L64.5001 54.6101C64.603 54.1573 64.58 53.685 64.4337 53.2443C64.2874 52.8037 64.0233 52.4114 63.6701 52.1101L48.9051 39.5001C48.5181 39.169 48.2387 38.7301 48.1025 38.2393C47.9663 37.7486 47.9796 37.2284 48.1406 36.7453C48.3017 36.2621 48.6032 35.838 49.0066 35.5271C49.4099 35.2162 49.8969 35.0327 50.4051 35.0001L69.8451 33.3551C70.3124 33.3118 70.7594 33.143 71.1387 32.8667C71.518 32.5903 71.8156 32.2166 72.0001 31.7851L79.6001 14.0701C79.8044 13.6036 80.1401 13.2067 80.5664 12.9281C80.9926 12.6494 81.4908 12.501 82.0001 12.501C82.5093 12.501 83.0076 12.6494 83.4338 12.9281C83.86 13.2067 84.1958 13.6036 84.4001 14.0701Z" stroke="#C6C6C6" stroke-width="5" stroke-linecap="round" stroke-linejoin="round"/>
<path id="Vector_2" d="M40 60.5L12 88.5" stroke="#C6C6C6" stroke-width="5" stroke-linecap="round" stroke-linejoin="round"/>
<path id="Vector_3" d="M48 88.5L20 116.5" stroke="#C6C6C6" stroke-width="5" stroke-linecap="round" stroke-linejoin="round"/>
<path id="Vector_4" d="M84 88.5L56 116.5" stroke="#C6C6C6" stroke-width="5" stroke-linecap="round" stroke-linejoin="round"/>
</g>
<defs>
<clipPath id="clip0_1026_71">
<rect width="128" height="128" fill="white" transform="translate(0 0.5)"/>
</clipPath>
</defs>
</svg>
